<mxfile host="app.diagrams.net" modified="2023-04-26T14:55:35.974Z" agent="Mozilla/5.0 (Macintosh; Intel Mac OS X 10_15_7) AppleWebKit/537.36 (KHTML, like Gecko) Chrome/112.0.0.0 Safari/537.36  " etag="Cmni4n7D-A5xvYnuO9oY" version="21.2.2" type="github">
  <diagram name="Page-1" id="mY-PJhBi66cW8dfcE8GE">
    <mxGraphModel dx="1434" dy="716" grid="1" gridSize="10" guides="1" tooltips="1" connect="1" arrows="1" fold="1" page="1" pageScale="1" pageWidth="850" pageHeight="1100" math="0" shadow="0">
      <root>
        <mxCell id="0" />
        <mxCell id="1" parent="0" />
        <mxCell id="p79DjnPZateV6uXnhxP5-10" style="edgeStyle=orthogonalEdgeStyle;rounded=0;orthogonalLoop=1;jettySize=auto;html=1;exitX=0.5;exitY=1;exitDx=0;exitDy=0;exitPerimeter=0;entryX=0.5;entryY=0;entryDx=0;entryDy=0;" edge="1" parent="1" source="p79DjnPZateV6uXnhxP5-4" target="p79DjnPZateV6uXnhxP5-7">
          <mxGeometry relative="1" as="geometry" />
        </mxCell>
        <mxCell id="p79DjnPZateV6uXnhxP5-4" value="Welkom bij Papi Gelato" style="strokeWidth=2;html=1;shape=mxgraph.flowchart.terminator;whiteSpace=wrap;rounded=0;" vertex="1" parent="1">
          <mxGeometry x="350" y="10" width="200" height="60" as="geometry" />
        </mxCell>
        <mxCell id="p79DjnPZateV6uXnhxP5-11" style="edgeStyle=orthogonalEdgeStyle;rounded=0;orthogonalLoop=1;jettySize=auto;html=1;exitX=0.5;exitY=1;exitDx=0;exitDy=0;entryX=0.5;entryY=0;entryDx=0;entryDy=0;" edge="1" parent="1" source="p79DjnPZateV6uXnhxP5-7" target="p79DjnPZateV6uXnhxP5-8">
          <mxGeometry relative="1" as="geometry" />
        </mxCell>
        <mxCell id="p79DjnPZateV6uXnhxP5-7" value="Hoeveel bolletjes wilt u?" style="shape=parallelogram;html=1;strokeWidth=2;perimeter=parallelogramPerimeter;whiteSpace=wrap;rounded=0;arcSize=12;size=0.23;" vertex="1" parent="1">
          <mxGeometry x="340" y="120" width="200" height="80" as="geometry" />
        </mxCell>
        <mxCell id="p79DjnPZateV6uXnhxP5-34" style="edgeStyle=orthogonalEdgeStyle;rounded=0;orthogonalLoop=1;jettySize=auto;html=1;exitX=0.5;exitY=1;exitDx=0;exitDy=0;" edge="1" parent="1" source="p79DjnPZateV6uXnhxP5-8" target="p79DjnPZateV6uXnhxP5-24">
          <mxGeometry relative="1" as="geometry" />
        </mxCell>
        <mxCell id="p79DjnPZateV6uXnhxP5-35" style="edgeStyle=orthogonalEdgeStyle;rounded=0;orthogonalLoop=1;jettySize=auto;html=1;exitX=0.5;exitY=1;exitDx=0;exitDy=0;entryX=0.5;entryY=0;entryDx=0;entryDy=0;" edge="1" parent="1" source="p79DjnPZateV6uXnhxP5-8" target="p79DjnPZateV6uXnhxP5-29">
          <mxGeometry relative="1" as="geometry" />
        </mxCell>
        <mxCell id="p79DjnPZateV6uXnhxP5-37" style="edgeStyle=orthogonalEdgeStyle;rounded=0;orthogonalLoop=1;jettySize=auto;html=1;exitX=0.5;exitY=1;exitDx=0;exitDy=0;entryX=0.5;entryY=0;entryDx=0;entryDy=0;" edge="1" parent="1" source="p79DjnPZateV6uXnhxP5-8" target="p79DjnPZateV6uXnhxP5-33">
          <mxGeometry relative="1" as="geometry">
            <Array as="points">
              <mxPoint x="440" y="360" />
              <mxPoint x="660" y="360" />
            </Array>
          </mxGeometry>
        </mxCell>
        <mxCell id="p79DjnPZateV6uXnhxP5-8" value="Het aantal wordt gegeven" style="rounded=0;whiteSpace=wrap;html=1;absoluteArcSize=1;arcSize=14;strokeWidth=2;" vertex="1" parent="1">
          <mxGeometry x="392.5" y="240" width="95" height="80" as="geometry" />
        </mxCell>
        <mxCell id="p79DjnPZateV6uXnhxP5-18" style="edgeStyle=orthogonalEdgeStyle;rounded=0;orthogonalLoop=1;jettySize=auto;html=1;exitX=0;exitY=0.5;exitDx=0;exitDy=0;entryX=0.5;entryY=0;entryDx=0;entryDy=0;" edge="1" parent="1" source="p79DjnPZateV6uXnhxP5-39" target="p79DjnPZateV6uXnhxP5-20">
          <mxGeometry relative="1" as="geometry">
            <mxPoint x="80" y="550" as="targetPoint" />
            <mxPoint x="227.5" y="610" as="sourcePoint" />
          </mxGeometry>
        </mxCell>
        <mxCell id="p79DjnPZateV6uXnhxP5-19" value="else" style="edgeLabel;html=1;align=center;verticalAlign=middle;resizable=0;points=[];rounded=0;" vertex="1" connectable="0" parent="p79DjnPZateV6uXnhxP5-18">
          <mxGeometry x="-0.3031" y="4" relative="1" as="geometry">
            <mxPoint as="offset" />
          </mxGeometry>
        </mxCell>
        <mxCell id="p79DjnPZateV6uXnhxP5-20" value="Sorry,dat snap ik niet..." style="rounded=0;whiteSpace=wrap;html=1;absoluteArcSize=1;arcSize=14;strokeWidth=2;" vertex="1" parent="1">
          <mxGeometry x="60" y="600" width="100" height="80" as="geometry" />
        </mxCell>
        <mxCell id="p79DjnPZateV6uXnhxP5-49" style="edgeStyle=orthogonalEdgeStyle;rounded=0;orthogonalLoop=1;jettySize=auto;html=1;exitX=0.5;exitY=1;exitDx=0;exitDy=0;entryX=0.5;entryY=0;entryDx=0;entryDy=0;" edge="1" parent="1" source="p79DjnPZateV6uXnhxP5-24" target="p79DjnPZateV6uXnhxP5-39">
          <mxGeometry relative="1" as="geometry" />
        </mxCell>
        <mxCell id="p79DjnPZateV6uXnhxP5-24" value="if aantal &amp;lt;= 3 &amp;amp; &amp;gt; 0&amp;nbsp;" style="rhombus;whiteSpace=wrap;html=1;rounded=0;arcSize=14;strokeWidth=2;" vertex="1" parent="1">
          <mxGeometry x="165" y="390" width="120" height="100" as="geometry" />
        </mxCell>
        <mxCell id="p79DjnPZateV6uXnhxP5-58" style="edgeStyle=orthogonalEdgeStyle;rounded=0;orthogonalLoop=1;jettySize=auto;html=1;exitX=0.5;exitY=1;exitDx=0;exitDy=0;entryX=0.5;entryY=0;entryDx=0;entryDy=0;" edge="1" parent="1" source="p79DjnPZateV6uXnhxP5-29" target="p79DjnPZateV6uXnhxP5-59">
          <mxGeometry relative="1" as="geometry">
            <mxPoint x="600" y="570" as="targetPoint" />
          </mxGeometry>
        </mxCell>
        <mxCell id="p79DjnPZateV6uXnhxP5-29" value="if aantal &amp;gt;= 4 &amp;amp; &amp;lt;= 8&amp;nbsp;" style="rhombus;whiteSpace=wrap;html=1;rounded=0;arcSize=14;strokeWidth=2;" vertex="1" parent="1">
          <mxGeometry x="370" y="395" width="140" height="110" as="geometry" />
        </mxCell>
        <mxCell id="p79DjnPZateV6uXnhxP5-61" style="edgeStyle=orthogonalEdgeStyle;rounded=0;orthogonalLoop=1;jettySize=auto;html=1;exitX=0.5;exitY=1;exitDx=0;exitDy=0;" edge="1" parent="1" source="p79DjnPZateV6uXnhxP5-33" target="p79DjnPZateV6uXnhxP5-60">
          <mxGeometry relative="1" as="geometry" />
        </mxCell>
        <mxCell id="p79DjnPZateV6uXnhxP5-33" value="if aantal &amp;gt; 8&amp;nbsp;" style="rhombus;whiteSpace=wrap;html=1;rounded=0;arcSize=14;strokeWidth=2;" vertex="1" parent="1">
          <mxGeometry x="600" y="390" width="120" height="100" as="geometry" />
        </mxCell>
        <mxCell id="p79DjnPZateV6uXnhxP5-64" style="edgeStyle=orthogonalEdgeStyle;rounded=0;orthogonalLoop=1;jettySize=auto;html=1;exitX=0.5;exitY=1;exitDx=0;exitDy=0;" edge="1" parent="1" source="p79DjnPZateV6uXnhxP5-39" target="p79DjnPZateV6uXnhxP5-40">
          <mxGeometry relative="1" as="geometry" />
        </mxCell>
        <mxCell id="p79DjnPZateV6uXnhxP5-65" value="If ant is hoorntje of een bakje" style="edgeLabel;html=1;align=center;verticalAlign=middle;resizable=0;points=[];" vertex="1" connectable="0" parent="p79DjnPZateV6uXnhxP5-64">
          <mxGeometry x="-0.1613" y="3" relative="1" as="geometry">
            <mxPoint as="offset" />
          </mxGeometry>
        </mxCell>
        <mxCell id="p79DjnPZateV6uXnhxP5-39" value="Wilt u deze bolletjes in een hoorntje of een bakje?" style="shape=parallelogram;perimeter=parallelogramPerimeter;whiteSpace=wrap;html=1;fixedSize=1;" vertex="1" parent="1">
          <mxGeometry x="180" y="540" width="180" height="80" as="geometry" />
        </mxCell>
        <mxCell id="p79DjnPZateV6uXnhxP5-45" style="edgeStyle=orthogonalEdgeStyle;rounded=0;orthogonalLoop=1;jettySize=auto;html=1;exitX=0;exitY=0.5;exitDx=0;exitDy=0;" edge="1" parent="1" source="p79DjnPZateV6uXnhxP5-40" target="p79DjnPZateV6uXnhxP5-7">
          <mxGeometry relative="1" as="geometry">
            <mxPoint x="20" y="180" as="targetPoint" />
            <Array as="points">
              <mxPoint x="150" y="775" />
              <mxPoint x="21" y="775" />
              <mxPoint x="21" y="160" />
            </Array>
          </mxGeometry>
        </mxCell>
        <mxCell id="p79DjnPZateV6uXnhxP5-47" value="Ja" style="edgeLabel;html=1;align=center;verticalAlign=middle;resizable=0;points=[];" vertex="1" connectable="0" parent="p79DjnPZateV6uXnhxP5-45">
          <mxGeometry x="-0.5565" y="2" relative="1" as="geometry">
            <mxPoint as="offset" />
          </mxGeometry>
        </mxCell>
        <mxCell id="p79DjnPZateV6uXnhxP5-52" style="edgeStyle=orthogonalEdgeStyle;rounded=0;orthogonalLoop=1;jettySize=auto;html=1;exitX=1;exitY=0.5;exitDx=0;exitDy=0;entryX=0;entryY=0.5;entryDx=0;entryDy=0;entryPerimeter=0;" edge="1" parent="1" source="p79DjnPZateV6uXnhxP5-40" target="p79DjnPZateV6uXnhxP5-53">
          <mxGeometry relative="1" as="geometry">
            <mxPoint x="450" y="980" as="targetPoint" />
            <Array as="points">
              <mxPoint x="390" y="750" />
              <mxPoint x="390" y="980" />
              <mxPoint x="340" y="980" />
              <mxPoint x="340" y="1060" />
            </Array>
          </mxGeometry>
        </mxCell>
        <mxCell id="p79DjnPZateV6uXnhxP5-54" value="Nee" style="edgeLabel;html=1;align=center;verticalAlign=middle;resizable=0;points=[];" vertex="1" connectable="0" parent="p79DjnPZateV6uXnhxP5-52">
          <mxGeometry x="-0.7237" y="2" relative="1" as="geometry">
            <mxPoint x="-16" y="2" as="offset" />
          </mxGeometry>
        </mxCell>
        <mxCell id="p79DjnPZateV6uXnhxP5-55" style="edgeStyle=orthogonalEdgeStyle;rounded=0;orthogonalLoop=1;jettySize=auto;html=1;" edge="1" parent="1" source="p79DjnPZateV6uXnhxP5-40" target="p79DjnPZateV6uXnhxP5-57">
          <mxGeometry relative="1" as="geometry">
            <mxPoint x="270" y="970" as="targetPoint" />
          </mxGeometry>
        </mxCell>
        <mxCell id="p79DjnPZateV6uXnhxP5-56" value="Else" style="edgeLabel;html=1;align=center;verticalAlign=middle;resizable=0;points=[];" vertex="1" connectable="0" parent="p79DjnPZateV6uXnhxP5-55">
          <mxGeometry x="0.1699" y="2" relative="1" as="geometry">
            <mxPoint as="offset" />
          </mxGeometry>
        </mxCell>
        <mxCell id="p79DjnPZateV6uXnhxP5-40" value="Wilt u nog meer bestellen?" style="shape=parallelogram;perimeter=parallelogramPerimeter;whiteSpace=wrap;html=1;fixedSize=1;" vertex="1" parent="1">
          <mxGeometry x="160" y="710" width="170" height="80" as="geometry" />
        </mxCell>
        <mxCell id="p79DjnPZateV6uXnhxP5-53" value="Einde" style="strokeWidth=2;html=1;shape=mxgraph.flowchart.terminator;whiteSpace=wrap;rounded=0;" vertex="1" parent="1">
          <mxGeometry x="350" y="1030" width="200" height="60" as="geometry" />
        </mxCell>
        <mxCell id="p79DjnPZateV6uXnhxP5-57" value="Sorry,dat snap ik niet..." style="rounded=0;whiteSpace=wrap;html=1;absoluteArcSize=1;arcSize=14;strokeWidth=2;" vertex="1" parent="1">
          <mxGeometry x="60" y="850" width="100" height="80" as="geometry" />
        </mxCell>
        <mxCell id="p79DjnPZateV6uXnhxP5-66" style="edgeStyle=orthogonalEdgeStyle;rounded=0;orthogonalLoop=1;jettySize=auto;html=1;exitX=0.5;exitY=1;exitDx=0;exitDy=0;entryX=0.5;entryY=0;entryDx=0;entryDy=0;entryPerimeter=0;" edge="1" parent="1" source="p79DjnPZateV6uXnhxP5-59" target="p79DjnPZateV6uXnhxP5-53">
          <mxGeometry relative="1" as="geometry" />
        </mxCell>
        <mxCell id="p79DjnPZateV6uXnhxP5-59" value="Hier is uw {hoorntje/bakje}met {aantal}bolletje(s)" style="rounded=1;whiteSpace=wrap;html=1;absoluteArcSize=1;arcSize=14;strokeWidth=2;" vertex="1" parent="1">
          <mxGeometry x="450" y="590" width="150" height="90" as="geometry" />
        </mxCell>
        <mxCell id="p79DjnPZateV6uXnhxP5-63" style="edgeStyle=orthogonalEdgeStyle;rounded=0;orthogonalLoop=1;jettySize=auto;html=1;entryX=0.925;entryY=0.45;entryDx=0;entryDy=0;entryPerimeter=0;" edge="1" parent="1" source="p79DjnPZateV6uXnhxP5-60" target="p79DjnPZateV6uXnhxP5-7">
          <mxGeometry relative="1" as="geometry">
            <Array as="points">
              <mxPoint x="890" y="620" />
              <mxPoint x="890" y="156" />
            </Array>
          </mxGeometry>
        </mxCell>
        <mxCell id="p79DjnPZateV6uXnhxP5-60" value="Sorry,&amp;nbsp;zulke grotebakken hebben we niet" style="rounded=1;whiteSpace=wrap;html=1;absoluteArcSize=1;arcSize=14;strokeWidth=2;" vertex="1" parent="1">
          <mxGeometry x="730" y="570" width="130" height="100" as="geometry" />
        </mxCell>
      </root>
    </mxGraphModel>
  </diagram>
</mxfile>
